<mxfile host="app.diagrams.net" modified="2024-04-04T06:23:07.653Z" agent="Mozilla/5.0 (Windows NT 10.0; Win64; x64) AppleWebKit/537.36 (KHTML, like Gecko) Chrome/123.0.0.0 Safari/537.36" version="24.0.7" etag="0SBVptiz4p35jjup-VcR" type="github">
  <diagram name="Страница — 1" id="5zY3TF0U9ArV4q9R4iP6">
    <mxGraphModel>
      <root>
        <mxCell id="0" />
        <mxCell id="1" parent="0" />
      </root>
    </mxGraphModel>
  </diagram>
</mxfile>
